#!OML:ASF H:\Terrain\Patient Classification 1\Walking\liu\liu.ASF
:FULLY-SPECIFIED
:DEGREES
307
root 20.032400 33.505798 12.371600 14.747880 14.899780 10.200060
lowerback -16.047741 -9.925000 -13.806240
upperback -1.511874 -12.146300 3.814460
thorax 9.259480 -6.334060 10.192200
lowerneck -37.714199 -9.365820 -25.617201
upperneck 43.536598 -11.707320 24.472601
head 21.790800 -4.653060 11.493520
rclavicle -0.000000 -0.000000
rhumerus -99.423599 12.114240 -165.494995
rradius 69.227997
rwrist -37.990398
rhand -56.558201 -54.372002
rfingers 14.250040
rthumb -3.310880 -114.318604
lclavicle -0.000000 -0.000000
lhumerus -23.996201 -71.121803 180.647598
lradius 74.452599
lwrist 35.314999
lhand -22.601200 -41.601799
lfingers 14.250040
lthumb 29.461800 17.311399
rfemur -88.387802 36.307201 -1.699066
rtibia 50.471802
rfoot -65.690399 -39.748402
rtoes -42.753399
lfemur 27.413200 5.855380 -57.409401
ltibia 0.000000
lfoot -29.328600 1.745610
ltoes 2.397900
308
root 20.004801 33.463799 12.668460 15.017600 15.347520 9.695660
lowerback -16.240259 -9.792240 -13.316680
upperback -1.581090 -11.998940 3.779180
thorax 9.217860 -6.246820 9.893000
lowerneck -37.412998 -9.521180 -25.067600
upperneck 43.215401 -12.076620 24.355801
head 21.647400 -4.796160 11.282040
rclavicle -0.000000 0.000000
rhumerus -98.906601 10.403280 -165.056000
rradius 67.431396
rwrist -36.127998
rhand -53.147400 -54.888599
rfingers 14.250040
rthumb -0.016656 -114.848000
lclavicle -0.000000 0.000000
lhumerus -24.787201 -73.674599 181.302795
lradius 75.738800
lwrist 35.575600
lhand -23.090401 -42.459801
lfingers 14.250040
lthumb 28.990400 16.487539
rfemur -88.662804 35.813599 -0.961316
rtibia 50.050400
rfoot -66.391403 -39.980999
rtoes -41.773998
lfemur 28.269800 5.931400 -56.373001
ltibia 0.000000
lfoot -29.451200 1.302956
ltoes 1.051844
309
root 19.984541 33.424198 12.982640 15.219640 15.859980 10.103660
lowerback -16.441179 -9.858080 -13.850060
upperback -1.441232 -12.017740 3.696440
thorax 9.527040 -6.278360 10.077560
lowerneck -36.703999 -9.512140 -25.626801
upperneck 42.139599 -12.142000 25.356400
head 21.184000 -4.779660 11.709140
rclavicle 0.000000 -0.000000
rhumerus -98.699997 10.716080 -165.286407
rradius 66.641800
rwrist -35.938801
rhand -53.120800 -52.115200
rfingers 14.250040
rthumb 0.009016 -112.074600
lclavicle 0.000000 -0.000000
lhumerus -25.168400 -74.162399 182.104401
lradius 76.667603
lwrist 33.936798
lhand -21.804001 -43.401402
lfingers 14.250040
lthumb 30.229799 15.454780
rfemur -88.206398 33.745602 -0.107366
rtibia 49.475399
rfoot -65.557602 -39.673599
rtoes -42.758202
lfemur 29.284000 5.864820 -56.296001
ltibia 0.000000
lfoot -29.386600 0.613464
ltoes 0.175420
310
root 19.970739 33.375401 13.311940 15.340480 16.017860 10.600380
lowerback -16.412460 -9.913120 -14.347600
upperback -1.509090 -12.045520 3.630460
thorax 9.488060 -6.298360 10.286240
lowerneck -38.149399 -9.957120 -25.397200
upperneck 43.534000 -12.589760 24.561001
head 22.004000 -5.012160 11.348280
rclavicle 0.000000 -0.000000
rhumerus -98.595802 10.317240 -164.753403
rradius 65.325401
rwrist -35.041401
rhand -52.807598 -49.720798
rfingers 14.250040
rthumb 0.311494 -109.680199
lclavicle 0.000000 -0.000000
lhumerus -25.922001 -74.653000 183.209000
lradius 77.418800
lwrist 32.580200
lhand -20.780800 -43.281399
lfingers 14.250040
lthumb 31.215401 15.499200
rfemur -87.464203 30.159599 1.813096
rtibia 48.923401
rfoot -63.181801 -37.745800
rtoes -42.587601
lfemur 30.404200 6.135440 -56.301800
ltibia -0.000000
lfoot -28.921801 -0.290844
ltoes 1.132874
311
root 19.946980 33.337799 13.635740 15.453860 16.097179 9.746460
lowerback -16.583281 -9.732480 -13.384820
upperback -1.535808 -11.889100 3.790180
thorax 9.450340 -6.201060 9.930240
lowerneck -38.450001 -10.225080 -25.326401
upperneck 43.537601 -12.907960 24.374800
head 22.102200 -5.162580 11.212140
rclavicle -0.000000 0.000000
rhumerus -98.365601 9.449180 -164.446793
rradius 64.140999
rwrist -34.059200
rhand -52.644402 -51.858601
rfingers 14.250040
rthumb 0.469170 -111.817802
lclavicle -0.000000 0.000000
lhumerus -26.358200 -77.399200 183.762405
lradius 78.261803
lwrist 33.180401
lhand -20.548599 -42.771198
lfingers 14.250040
lthumb 31.438999 15.991960
rfemur -86.919601 26.324800 5.635560
rtibia 48.678600
rfoot -58.916199 -36.340599
rtoes -42.600601
lfemur 31.394400 6.597600 -54.800400
ltibia -0.000000
lfoot -28.403601 -0.938774
ltoes 0.321292
312
root 19.918760 33.291401 13.984340 15.419380 16.309980 9.083000
lowerback -16.848921 -9.698620 -12.826080
upperback -1.553440 -11.886320 3.958440
thorax 9.540860 -6.191920 9.776560
lowerneck -38.427399 -10.188500 -24.996799
upperneck 43.473400 -12.896060 24.149799
head 22.051201 -5.155320 11.067940
rclavicle 0.000000 -0.000000
rhumerus -98.897202 10.384080 -165.239395
rradius 64.105598
rwrist -34.533401
rhand -54.886398 -50.653198
rfingers 14.250040
rthumb -1.696272 -110.609398
lclavicle 0.000000 -0.000000
lhumerus -27.313999 -78.745003 184.474792
lradius 79.175400
lwrist 32.572201
lhand -19.434580 -43.331001
lfingers 14.250040
lthumb 32.511799 15.346040
rfemur -86.268402 23.032400 8.981380
rtibia 48.744999
rfoot -55.589199 -34.602402
rtoes -39.089600
lfemur 32.616798 6.935960 -53.550201
ltibia -0.000000
lfoot -28.346800 -0.884156
ltoes -5.348620
313
root 19.894220 33.221802 14.347060 15.393000 16.543240 9.431820
lowerback -16.982700 -9.851440 -13.335380
upperback -1.627094 -12.028580 3.851900
thorax 9.599020 -6.270460 9.919040
lowerneck -38.245399 -9.987480 -24.805599
upperneck 43.561001 -12.775480 24.430201
head 22.033800 -5.058160 11.166320
rclavicle -0.000000 0.000000
rhumerus -99.588600 11.022760 -165.819199
rradius 63.971199
rwrist -35.184200
rhand -56.810200 -44.259998
rfingers 14.250040
rthumb -3.554380 -104.204803
lclavicle -0.000000 0.000000
lhumerus -28.948799 -78.438004 185.444397
lradius 80.170799
lwrist 30.448799
lhand -18.252220 -44.567001
lfingers 14.250040
lthumb 33.650002 14.015160
rfemur -85.704201 19.853239 10.973280
rtibia 49.157398
rfoot -54.080200 -31.242800
rtoes -35.000801
lfemur 33.903198 7.151140 -53.390400
ltibia 0.000000
lfoot -28.042999 -1.039024
ltoes -11.896920
314
root 19.871180 33.152000 14.707440 15.448040 16.781080 10.115920
lowerback -17.111561 -9.851340 -13.992820
upperback -1.675018 -11.945580 3.612960
thorax 9.650440 -6.239040 10.038820
lowerneck -37.619598 -10.079380 -25.218599
upperneck 43.220600 -12.927460 24.827000
head 21.840599 -5.136520 11.353700
rclavicle -0.000000 -0.000000
rhumerus -99.947197 10.432660 -165.580597
rradius 63.439800
rwrist -34.691200
rhand -56.587399 -44.444000
rfingers 14.250040
rthumb -3.339180 -104.390602
lclavicle -0.000000 -0.000000
lhumerus -30.565001 -78.881798 186.682800
lradius 81.019798
lwrist 28.641199
lhand -17.411520 -45.499802
lfingers 14.250040
lthumb 34.459400 13.012640
rfemur -85.334999 15.998260 12.964120
rtibia 50.151600
rfoot -52.158001 -27.441200
rtoes -39.249802
lfemur 35.180199 7.304580 -53.538601
ltibia 0.000000
lfoot -27.554399 -1.769194
ltoes -16.862780
315
root 19.835279 33.083401 15.061780 15.579440 16.950541 10.594900
lowerback -17.003000 -9.803640 -14.476220
upperback -1.951738 -11.842540 3.473620
thorax 9.316680 -6.177480 10.198940
lowerneck -37.250801 -10.175600 -25.268600
upperneck 43.553799 -12.955800 24.194599
head 21.872999 -5.237820 11.128540
rclavicle -0.000000 -0.000000
rhumerus -100.325996 9.950720 -165.178802
rradius 62.898399
rwrist -34.084000
rhand -54.920601 -48.622799
rfingers 14.250040
rthumb -1.729312 -108.578796
lclavicle -0.000000 -0.000000
lhumerus -32.347801 -79.036598 188.292404
lradius 81.596603
lwrist 26.890200
lhand -16.273720 -45.588402
lfingers 14.250040
lthumb 35.554199 12.826540
rfemur -85.461403 13.142400 14.647260
rtibia 51.748600
rfoot -49.253201 -24.698400
rtoes -43.317600
lfemur 36.409801 7.498560 -53.314800
ltibia -0.000000
lfoot -26.755400 -2.892620
ltoes -12.332160
316
root 19.784321 33.033199 15.391460 15.753700 17.243900 10.485360
lowerback -16.702980 -9.908620 -14.550820
upperback -2.185340 -12.005240 3.517720
thorax 8.939020 -6.241980 10.296140
lowerneck -36.602402 -9.974260 -26.220800
upperneck 42.504799 -12.843160 26.020399
head 21.452000 -5.080320 11.972840
rclavicle 0.000000 0.000000
rhumerus -100.272202 9.481520 -164.878601
rradius 62.115002
rwrist -34.162201
rhand -56.130001 -46.246201
rfingers 14.250040
rthumb -2.897360 -106.195999
lclavicle 0.000000 0.000000
lhumerus -33.509201 -78.777000 189.173599
lradius 82.177002
lwrist 26.117599
lhand -14.262640 -45.761799
lfingers 14.250040
lthumb 37.488998 12.472000
rfemur -85.905403 11.493660 16.293240
rtibia 53.609200
rfoot -44.985802 -22.299999
rtoes -36.376598
lfemur 37.416000 7.601120 -52.346600
ltibia -0.000000
lfoot -25.466000 -3.809760
ltoes -6.853560
